<svg width="24" height="24" viewBox="0 0 24 24" fill="none" xmlns="http://www.w3.org/2000/svg">
<path d="M20.3333 4H3.66667C2.74653 4 2 4.71987 2 5.60714V17.3929C2 18.2801 2.74653 19 3.66667 19H20.3333C21.2535 19 22 18.2801 22 17.3929V5.60714C22 4.71987 21.2535 4 20.3333 4ZM8.11111 7.21429C9.33681 7.21429 10.3333 8.17522 10.3333 9.35714C10.3333 10.5391 9.33681 11.5 8.11111 11.5C6.88542 11.5 5.88889 10.5391 5.88889 9.35714C5.88889 8.17522 6.88542 7.21429 8.11111 7.21429ZM12 15.1429C12 15.4978 11.6528 15.7857 11.2222 15.7857H5C4.56944 15.7857 4.22222 15.4978 4.22222 15.1429V14.5C4.22222 13.4353 5.26736 12.5714 6.55556 12.5714H6.72917C7.15625 12.7422 7.62153 12.8393 8.11111 12.8393C8.60069 12.8393 9.06944 12.7422 9.49306 12.5714H9.66667C10.9549 12.5714 12 13.4353 12 14.5V15.1429ZM19.7778 13.375C19.7778 13.5223 19.6528 13.6429 19.5 13.6429H14.5C14.3472 13.6429 14.2222 13.5223 14.2222 13.375V12.8393C14.2222 12.692 14.3472 12.5714 14.5 12.5714H19.5C19.6528 12.5714 19.7778 12.692 19.7778 12.8393V13.375ZM19.7778 11.2321C19.7778 11.3795 19.6528 11.5 19.5 11.5H14.5C14.3472 11.5 14.2222 11.3795 14.2222 11.2321V10.6964C14.2222 10.5491 14.3472 10.4286 14.5 10.4286H19.5C19.6528 10.4286 19.7778 10.5491 19.7778 10.6964V11.2321ZM19.7778 9.08929C19.7778 9.23661 19.6528 9.35714 19.5 9.35714H14.5C14.3472 9.35714 14.2222 9.23661 14.2222 9.08929V8.55357C14.2222 8.40625 14.3472 8.28571 14.5 8.28571H19.5C19.6528 8.28571 19.7778 8.40625 19.7778 8.55357V9.08929Z" fill="#6D79FF"/>
</svg>
