<svg width="18" height="18" viewBox="0 0 18 18" fill="none" xmlns="http://www.w3.org/2000/svg">
<path d="M9.00183 1.57488C9.98645 0.590261 11.3219 0.0371094 12.7143 0.0371094C14.1068 0.0371094 15.4422 0.590261 16.4268 1.57488C17.4114 2.55949 17.9646 3.89492 17.9646 5.28738C17.9646 6.67984 17.4114 8.01526 16.4268 8.99988L9.00183 16.4249C8.5143 16.9124 7.93551 17.2991 7.29852 17.563C6.66153 17.8268 5.97881 17.9626 5.28933 17.9626C3.89687 17.9626 2.56145 17.4095 1.57683 16.4249C0.592214 15.4403 0.0390625 14.1048 0.0390625 12.7124C0.0390625 11.3199 0.592214 9.98449 1.57683 8.99988L9.00183 1.57488ZM12.1848 11.1209L15.3648 7.94088C16.0631 7.23666 16.454 6.28452 16.452 5.29281C16.4499 4.30109 16.0552 3.35056 15.354 2.64921C14.6528 1.94786 13.7024 1.5528 12.7107 1.55049C11.719 1.54818 10.7667 1.9388 10.0623 2.63688L6.88083 5.81688L12.1848 11.1209ZM8.78283 13.2809C8.85246 13.2111 8.90768 13.1284 8.94533 13.0373C8.98298 12.9462 9.00232 12.8486 9.00225 12.7501C9.00218 12.6516 8.9827 12.554 8.94492 12.463C8.90715 12.3719 8.85181 12.2893 8.78208 12.2196C8.71235 12.15 8.62958 12.0948 8.53851 12.0571C8.44744 12.0195 8.34985 12.0001 8.2513 12.0002C8.15275 12.0003 8.05519 12.0198 7.96417 12.0575C7.87315 12.0953 7.79046 12.1506 7.72083 12.2204L5.47083 14.4704C5.4012 14.5401 5.34598 14.6229 5.30833 14.7139C5.27069 14.805 5.25134 14.9026 5.25141 15.0012C5.25155 15.2002 5.33075 15.391 5.47158 15.5316C5.61241 15.6723 5.80334 15.7512 6.00236 15.751C6.20138 15.7509 6.3922 15.6717 6.53283 15.5309L8.78283 13.2809Z" fill="black"/>
</svg>
