<svg width="16" height="20" viewBox="0 0 16 20" fill="none" xmlns="http://www.w3.org/2000/svg">
<path d="M8.00078 5.7999V0.399902H2.60078C2.12339 0.399902 1.66555 0.589545 1.32799 0.92711C0.990423 1.26468 0.800781 1.72251 0.800781 2.1999V17.7999C0.800781 18.2773 0.990423 18.7351 1.32799 19.0727C1.66555 19.4103 2.12339 19.5999 2.60078 19.5999H13.4008C13.8782 19.5999 14.336 19.4103 14.6736 19.0727C15.0111 18.7351 15.2008 18.2773 15.2008 17.7999V7.5999H9.80078C9.32339 7.5999 8.86555 7.41026 8.52799 7.0727C8.19042 6.73513 8.00078 6.27729 8.00078 5.7999ZM3.80078 9.9999H12.2008C12.3599 9.9999 12.5125 10.0631 12.625 10.1756C12.7376 10.2882 12.8008 10.4408 12.8008 10.5999C12.8008 10.759 12.7376 10.9116 12.625 11.0242C12.5125 11.1367 12.3599 11.1999 12.2008 11.1999H3.80078C3.64165 11.1999 3.48904 11.1367 3.37652 11.0242C3.264 10.9116 3.20078 10.759 3.20078 10.5999C3.20078 10.4408 3.264 10.2882 3.37652 10.1756C3.48904 10.0631 3.64165 9.9999 3.80078 9.9999ZM3.80078 12.3999H12.2008C12.3599 12.3999 12.5125 12.4631 12.625 12.5756C12.7376 12.6882 12.8008 12.8408 12.8008 12.9999C12.8008 13.159 12.7376 13.3116 12.625 13.4242C12.5125 13.5367 12.3599 13.5999 12.2008 13.5999H3.80078C3.64165 13.5999 3.48904 13.5367 3.37652 13.4242C3.264 13.3116 3.20078 13.159 3.20078 12.9999C3.20078 12.8408 3.264 12.6882 3.37652 12.5756C3.48904 12.4631 3.64165 12.3999 3.80078 12.3999ZM3.80078 14.7999H12.2008C12.3599 14.7999 12.5125 14.8631 12.625 14.9756C12.7376 15.0882 12.8008 15.2408 12.8008 15.3999C12.8008 15.559 12.7376 15.7116 12.625 15.8242C12.5125 15.9367 12.3599 15.9999 12.2008 15.9999H3.80078C3.64165 15.9999 3.48904 15.9367 3.37652 15.8242C3.264 15.7116 3.20078 15.559 3.20078 15.3999C3.20078 15.2408 3.264 15.0882 3.37652 14.9756C3.48904 14.8631 3.64165 14.7999 3.80078 14.7999ZM9.20078 5.7999V0.699902L14.9008 6.3999H9.80078C9.64165 6.3999 9.48904 6.33669 9.37652 6.22417C9.26399 6.11164 9.20078 5.95903 9.20078 5.7999Z" fill="#19191E"/>
</svg>
