<svg width="55" height="55" viewBox="0 0 55 55" fill="none" xmlns="http://www.w3.org/2000/svg">
<circle cx="27.5" cy="27.5" r="27.5" fill="#F2F0EC"/>
<path d="M10.5 19.9999V18.8197C10.5 18.343 10.8357 17.9306 11.3071 17.86C14.0538 17.4487 18.8322 17.3321 21 19.4999M3 44.4999C3 44.4999 3 39.9999 3 38.9999C3 37.9999 4 36.9999 5 36.4999C6 35.9999 10 34.4999 10 34.4999M10 34.4999L12.2413 37.4883C12.6286 38.0046 13.3963 38.0243 13.8095 37.5285L15.5 35.4999M10 34.4999L11 32.4999M28.5 44.4999V38.9999C28.5 37.9999 27.5 36.9999 26.5 36.4999C25.5 35.9999 21.5 34.4999 21.5 34.4999M21.5 34.4999L19.1918 37.5775C18.8267 38.0643 18.115 38.1149 17.6847 37.6846L15.5 35.4999M21.5 34.4999L20 32.9999M11 28.9999V32.4999M11 32.4999L15.5 35.4999M15.5 35.4999L20 32.9999M15.5 35.4999C15.5 38.4999 15.5 44.0999 15.5 44.4999M20 29.9999C20 30.9762 20 32.9999 20 32.9999M7.5 44.4999V41.4999M24 41.4999V44.4999M24 11.4999V18.8376C24 18.9451 23.9827 19.0519 23.9487 19.1538L23.0513 21.8459C23.0173 21.9479 23 22.0547 23 22.1622V24.8768C23 24.9585 22.9907 25.0386 22.9694 25.1175C22.4183 27.1523 20.3153 30.9999 16 30.9999C11.709 30.9999 9.28844 27.1956 8.55281 25.1521C8.5164 25.051 8.5 24.9451 8.5 24.8376V22.2359C8.5 22.0807 8.46333 21.9279 8.39678 21.7877C8.04596 21.0484 7.5 19.7238 7.5 18.9999C7.5 18.1999 7.5 17.9999 7.5 16.4999C7.5 14.9999 9.3 11.4999 12.5 11.4999C15.7 11.4999 21.5 11.4999 24 11.4999Z" stroke="#B6B1AD" stroke-width="2" stroke-linecap="round"/>
<path d="M35 5.99988H30C28.8954 5.99988 28 6.89531 28 7.99988V19.9999C28 21.1044 28.8954 21.9999 30 21.9999H32.2604C32.3851 21.9999 32.4795 22.1129 32.4571 22.2357L31.5898 27.0059C31.5575 27.1838 31.759 27.3099 31.9049 27.203L38.472 22.3871C38.815 22.1355 39.2294 21.9999 39.6547 21.9999H47C48.1046 21.9999 49 21.1044 49 19.9999V7.99988C49 6.89531 48.1046 5.99988 47 5.99988H42" stroke="#B6B1AD" stroke-width="2"/>
<path d="M39.0626 1.50877L38.1921 1.49358C37.6072 1.48337 37.1384 1.97529 37.1768 2.55906L37.8477 12.7574C37.8749 13.1716 38.2151 13.4958 38.6302 13.5031C39.058 13.5105 39.4156 13.1793 39.4409 12.7522L40.0434 2.56768C40.077 2.00006 39.6312 1.5187 39.0626 1.50877Z" stroke="#B6B1AD" stroke-width="1.5" stroke-linecap="round"/>
<circle cx="38.5" cy="17.4999" r="1.5" stroke="#B6B1AD" stroke-width="1.2"/>
</svg>
