<svg width="45" height="40" viewBox="0 0 45 40" fill="none" xmlns="http://www.w3.org/2000/svg">
<path fill-rule="evenodd" clip-rule="evenodd" d="M0.419445 4.8288L8.33868 0H35.7074L43.8319 4.83604C44.2311 5.07367 44.3681 5.58629 44.1405 5.99134L34.6291 22.9217C34.5083 23.1366 34.2481 23.1932 34.0542 23.0904C33.6841 22.3023 33.2375 21.5571 32.724 20.8646C32.7008 20.7619 32.716 20.6525 32.7696 20.5584L40.3651 7.21995C40.5876 6.82926 40.4701 6.33304 40.096 6.08366L35.8141 3.2291C35.4107 2.96013 34.8646 3.07949 34.6101 3.49226L26.8387 16.0992C26.7683 16.2135 26.6505 16.2855 26.5226 16.3C25.8881 16.0793 25.2314 15.9062 24.5566 15.7849C24.4025 15.6504 24.3573 15.4137 24.4802 15.2266L26.8355 11.6425C27.2097 11.0731 26.8012 10.3159 26.1198 10.3159H18.446C17.7885 10.3159 17.3763 11.0262 17.7025 11.5971L19.8089 15.2833C19.9149 15.4688 19.8655 15.6926 19.716 15.821C19.0621 15.9487 18.4256 16.1252 17.8106 16.3466C17.6871 16.3284 17.5743 16.2565 17.5066 16.1447L9.84691 3.48958C9.59732 3.0772 9.05669 2.95199 8.65122 3.21265L4.18693 6.08255C3.80098 6.33066 3.67915 6.83886 3.91065 7.23499L11.6928 20.5511C11.7491 20.6475 11.7648 20.7605 11.7396 20.8662C11.2351 21.5468 10.7952 22.2783 10.4291 23.0514C10.2349 23.1654 9.9656 23.1131 9.84036 22.8952L0.122796 5.98666C-0.108556 5.58411 0.0230281 5.07052 0.419445 4.8288Z" fill="white"/>
<path fill-rule="evenodd" clip-rule="evenodd" d="M22.2279 39.9998C28.5066 39.9998 33.5964 34.9099 33.5964 28.6312C33.5964 22.3526 28.5066 17.2627 22.2279 17.2627C15.9492 17.2627 10.8594 22.3526 10.8594 28.6312C10.8594 34.9099 15.9492 39.9998 22.2279 39.9998ZM23.5722 23.0003H18.1992V35H20.5275V30.7016H23.5722L23.5954 30.702L23.6617 30.7016C25.7884 30.7016 27.5124 28.9776 27.5124 26.851C27.5124 24.7244 25.7884 23.0003 23.6617 23.0003L23.6303 23.0002C23.6108 23 23.5914 22.9998 23.5722 23.0003ZM23.214 24.7913H20.5275V28.9106H23.214V28.9087C24.3099 28.8618 25.1841 27.9585 25.1841 26.851C25.1841 25.7435 24.3099 24.8401 23.214 24.7933V24.7913Z" fill="white"/>
</svg>
