<svg width="55" height="55" viewBox="0 0 55 55" fill="none" xmlns="http://www.w3.org/2000/svg">
<circle cx="27.5" cy="27.5" r="27.5" fill="#F2F0EC"/>
<rect x="3" y="4" width="42" height="42" rx="4" stroke="#B6B1AD" stroke-width="2"/>
<path d="M14.4999 22.0004L15.4322 20.6019C15.4672 20.5494 15.5415 20.542 15.5861 20.5867L17.3292 22.3297C17.3922 22.3927 17.4999 22.3481 17.4999 22.259V18.0464C17.4999 18.0172 17.5126 17.9895 17.5348 17.9705L20.877 15.1057C20.9335 15.0573 21.0211 15.0853 21.0391 15.1574L21.4166 16.6673C21.4408 16.7643 21.5768 16.7695 21.6085 16.6746L22.4896 14.0313C22.4963 14.0112 22.5084 13.9943 22.5256 13.982C24.8703 12.3116 29.9057 9.3048 31.4999 10.5004C33.0999 11.7004 31.8332 15.6671 30.9999 17.5004L30.0181 19.9549C30.0066 19.9836 29.9825 20.0054 29.9527 20.0139L26.7811 20.92C26.6895 20.9462 26.6829 21.0736 26.7715 21.109L28.907 21.9633C28.9583 21.9838 28.9832 22.042 28.9627 22.0933L27.9999 24.5004M12.9999 25.0004C12.3332 26.8337 11.5999 31.0004 13.9999 33.0004C14.6666 33.5004 16.8 34.1004 20 32.5004M28.5 14.5004C24.8333 17.8337 16.3 27.1004 11.5 37.5004M25 39.9004V35.6004C25 35.5452 24.9552 35.5004 24.9 35.5004H20.1C20.0448 35.5004 20 35.4556 20 35.4004V29.6004C20 29.5452 20.0448 29.5004 20.1 29.5004H24.9C24.9552 29.5004 25 29.4556 25 29.4004V25.1004C25 25.0452 25.0448 25.0004 25.1 25.0004H30.4C30.4552 25.0004 30.5 25.0452 30.5 25.1004V29.4004C30.5 29.4556 30.5448 29.5004 30.6 29.5004H34.9C34.9552 29.5004 35 29.5452 35 29.6004V35.4004C35 35.4556 34.9552 35.5004 34.9 35.5004H30.6C30.5448 35.5004 30.5 35.5452 30.5 35.6004V39.9004C30.5 39.9556 30.4552 40.0004 30.4 40.0004H25.1C25.0448 40.0004 25 39.9556 25 39.9004Z" stroke="#B6B1AD" stroke-width="1.2" stroke-linecap="round"/>
</svg>
