<svg width="55" height="55" viewBox="0 0 55 55" fill="none" xmlns="http://www.w3.org/2000/svg">
<circle cx="27.5" cy="27.5" r="27.5" fill="#F4F2FF"/>
<path d="M41.0322 10.9924L41.1319 10.1136C41.4429 7.36974 39.4707 4.89327 36.7268 4.58224L10.0932 1.56317C7.34933 1.25214 4.87286 3.22433 4.56183 5.96818L1.44635 33.4523C1.13532 36.1962 3.10752 38.6726 5.85137 38.9837L9.60046 39.4086" stroke="#363FB8" stroke-width="2"/>
<rect x="13.5" y="18.3154" width="4.27956" height="4.27956" rx="0.5" transform="rotate(6.46718 13.5 18.3154)" stroke="#363FB8" stroke-width="2"/>
<rect x="12.535" y="26.8204" width="4.27956" height="4.27956" rx="0.5" transform="rotate(6.46718 12.535 26.8204)" stroke="#363FB8" stroke-width="2"/>
<path d="M22.7578 20.2266L30.1994 21.0701" stroke="#363FB8" stroke-width="2" stroke-linecap="round"/>
<path d="M22.3711 23.6289L27.5802 24.2194" stroke="#363FB8" stroke-width="2" stroke-linecap="round"/>
<path d="M21.7932 28.7313L26.0455 29.2133" stroke="#363FB8" stroke-width="2" stroke-linecap="round"/>
<path d="M21.4062 32.1328L25.6586 32.6148" stroke="#363FB8" stroke-width="2" stroke-linecap="round"/>
<path d="M21.3047 14.0322L33.2112 15.3819" stroke="#363FB8" stroke-width="2" stroke-linecap="round"/>
<path d="M28.217 41.9921L27.0679 43.8487" stroke="#363FB8" stroke-width="2" stroke-linecap="round"/>
<path d="M38.5859 16.0928L45.8511 20.3863L36.0643 36.9466C35.2213 38.373 33.3817 38.846 31.9553 38.003L29.8555 36.7621C28.4291 35.9191 27.9562 34.0795 28.7991 32.6531L38.5859 16.0928Z" stroke="#363FB8" stroke-width="2"/>
<path d="M45.8729 20.3734L48.8567 15.3246C50.0423 13.3184 49.3771 10.7309 47.3709 9.54522V9.54522C45.3647 8.35959 42.7771 9.0248 41.5915 11.031L38.6078 16.0798" stroke="#363FB8" stroke-width="2"/>
<path d="M28.6404 36.0123L27.2202 38.4155C26.5084 39.6199 26.9078 41.1732 28.1122 41.885V41.885C29.3166 42.5968 30.87 42.1975 31.5818 40.993L33.002 38.5899" stroke="#363FB8" stroke-width="2"/>
<path d="M47.6004 17.5436L48.054 17.8276C49.4481 18.7006 49.8792 20.5334 49.0205 21.9363L46.7392 25.6636" stroke="#363FB8" stroke-width="2" stroke-linecap="round"/>
<path fill-rule="evenodd" clip-rule="evenodd" d="M42.0147 10.2528L41.4339 10.2846L41.2244 12.1327C41.1647 12.1232 41.1045 12.115 41.0439 12.1081L14.4102 9.08904C12.2152 8.84022 10.234 10.418 9.98516 12.6131L7.66961 33.0404C7.5646 33.9667 7.7868 34.8961 8.29027 35.6707L11.7666 36.0648C14.5105 36.3758 16.4827 38.8523 16.1716 41.5961L15.7884 44.9771C16.4411 45.7053 17.34 46.1711 18.3163 46.2817L36.9309 48.3918C39.126 48.6406 41.1072 47.0629 41.356 44.8678L43.9655 21.8479L46.0428 21.2783L43.3433 45.0931C42.9701 48.3857 39.9983 50.7523 36.7057 50.3791L18.0911 48.269C16.5244 48.0914 15.0906 47.3043 14.0997 46.0778L6.977 37.2615C5.96779 36.0124 5.50146 34.4108 5.68234 32.8151L7.99789 12.3878C8.37112 9.09517 11.3429 6.72853 14.6355 7.10177L41.2692 10.1208C41.5235 10.1497 41.7723 10.194 42.0147 10.2528ZM14.0224 42.7996L10.0503 37.883L11.5414 38.052C13.1877 38.2387 14.371 39.7245 14.1844 41.3709L14.0224 42.7996Z" fill="#363FB8"/>
</svg>
