<svg width="17" height="20" viewBox="0 0 17 20" fill="none" xmlns="http://www.w3.org/2000/svg">
<path d="M9.00156 0.399902V5.7999C9.00156 6.27729 9.19121 6.73513 9.52877 7.0727C9.86634 7.41026 10.3242 7.5999 10.8016 7.5999H16.2016V17.7999C16.2016 18.2773 16.0119 18.7351 15.6744 19.0727C15.3368 19.4103 14.879 19.5999 14.4016 19.5999H3.60156C3.12417 19.5999 2.66634 19.4103 2.32877 19.0727C1.9912 18.7351 1.80156 18.2773 1.80156 17.7999V13.5999H3.60156C3.93602 13.5999 4.26386 13.5067 4.54831 13.3308C4.83276 13.1548 5.06257 12.9031 5.21196 12.6039L5.25276 12.5223L6.74076 16.0923C6.87341 16.4105 7.09466 16.6839 7.37819 16.8801C7.66172 17.0762 7.99561 17.1868 8.34016 17.1987C8.68471 17.2105 9.02542 17.1232 9.32179 16.9471C9.61816 16.771 9.85771 16.5134 10.012 16.2051L11.314 13.5999H12.0016C12.479 13.5999 12.9368 13.4103 13.2744 13.0727C13.6119 12.7351 13.8016 12.2773 13.8016 11.7999C13.8016 11.3225 13.6119 10.8647 13.2744 10.5271C12.9368 10.1895 12.479 9.9999 12.0016 9.9999H10.2016C9.8671 9.99991 9.53926 10.0931 9.25481 10.269C8.97036 10.445 8.74055 10.6967 8.59116 10.9959L8.55036 11.0775L7.06236 7.5075C6.92971 7.18929 6.70847 6.91586 6.42494 6.71973C6.14141 6.52361 5.80752 6.41303 5.46297 6.40115C5.11842 6.38927 4.7777 6.47658 4.48134 6.65271C4.18497 6.82885 3.94542 7.08638 3.79116 7.3947L2.48916 9.9999H1.80156V2.1999C1.80156 1.72251 1.9912 1.26468 2.32877 0.92711C2.66634 0.589545 3.12417 0.399902 3.60156 0.399902H9.00156ZM10.2016 0.699902V5.7999C10.2016 5.95903 10.2648 6.11164 10.3773 6.22417C10.4898 6.33669 10.6424 6.3999 10.8016 6.3999H15.9016L10.2016 0.699902ZM5.95596 7.9695C5.91204 7.86295 5.83835 7.7713 5.74372 7.70552C5.64909 7.63973 5.53751 7.60259 5.42233 7.59854C5.30715 7.59449 5.19324 7.6237 5.09422 7.68268C4.9952 7.74165 4.91526 7.8279 4.86396 7.9311L3.23196 11.1999H1.20156C1.04243 11.1999 0.88982 11.2631 0.777299 11.3756C0.664777 11.4882 0.601562 11.6408 0.601562 11.7999C0.601562 11.959 0.664777 12.1116 0.777299 12.2242C0.88982 12.3367 1.04243 12.3999 1.20156 12.3999H3.60156C3.7129 12.3999 3.82203 12.3689 3.91677 12.3104C4.0115 12.2519 4.08808 12.1682 4.13796 12.0687L5.35356 9.6399L7.84956 15.6291C7.8938 15.735 7.96748 15.826 8.06186 15.8913C8.15624 15.9565 8.26737 15.9934 8.38206 15.9974C8.49675 16.0015 8.61019 15.9725 8.70893 15.9141C8.80768 15.8556 8.88758 15.77 8.93916 15.6675L10.5736 12.3999H12.0016C12.1607 12.3999 12.3133 12.3367 12.4258 12.2242C12.5383 12.1116 12.6016 11.959 12.6016 11.7999C12.6016 11.6408 12.5383 11.4882 12.4258 11.3756C12.3133 11.2631 12.1607 11.1999 12.0016 11.1999H10.2016C10.0902 11.1999 9.98109 11.2309 9.88636 11.2894C9.79163 11.3479 9.71504 11.4316 9.66516 11.5311L8.44956 13.9599L5.95356 7.9707L5.95596 7.9695Z" fill="#19191E"/>
</svg>
