<svg width="11" height="10" viewBox="0 0 11 10" fill="none" xmlns="http://www.w3.org/2000/svg">
<path d="M0.55105 9.99997C0.4749 9.99984 0.39961 9.98386 0.329969 9.95306C0.260328 9.92225 0.197859 9.87729 0.146534 9.82104C0.0942806 9.76526 0.0544079 9.69907 0.0295306 9.6268C0.00465322 9.55453 -0.00466688 9.47782 0.00218126 9.4017L0.136654 7.92305L6.34875 1.71315L8.2901 3.65395L2.07965 9.8633L0.600997 9.99777C0.584393 9.9993 0.567724 10 0.55105 9.99997ZM8.6776 3.2659L6.7368 1.3251L7.90095 0.160949C7.95193 0.109917 8.01246 0.0694333 8.07909 0.0418119C8.14572 0.0141905 8.21714 -2.67029e-05 8.28927 -2.67029e-05C8.3614 -2.67029e-05 8.43283 0.0141905 8.49946 0.0418119C8.56609 0.0694333 8.62662 0.109917 8.6776 0.160949L9.84175 1.3251C9.89278 1.37607 9.93327 1.43661 9.96089 1.50324C9.98851 1.56987 10.0027 1.64129 10.0027 1.71342C10.0027 1.78555 9.98851 1.85698 9.96089 1.92361C9.93327 1.99024 9.89278 2.05077 9.84175 2.10175L8.67815 3.26535L8.6776 3.2659Z" fill="white"/>
</svg>
