<svg width="22" height="20" viewBox="0 0 22 20" fill="none" xmlns="http://www.w3.org/2000/svg">
<path d="M1 13V7C1 5.4087 1.63214 3.88258 2.75736 2.75736C3.88258 1.63214 5.4087 1 7 1H15C16.5913 1 18.1174 1.63214 19.2426 2.75736C20.3679 3.88258 21 5.4087 21 7V13C21 14.5913 20.3679 16.1174 19.2426 17.2426C18.1174 18.3679 16.5913 19 15 19H7C5.4087 19 3.88258 18.3679 2.75736 17.2426C1.63214 16.1174 1 14.5913 1 13V13Z" stroke="black" stroke-width="1.5"/>
<path d="M14 7.00018C14 7.00018 15 8.12518 15 10.0002C15 11.8752 14 13.0002 14 13.0002M11 10.0102L11.01 9.99918M16 5.00018C16 5.00018 18 6.78618 18 10.0002C18 13.2142 16 15.0002 16 15.0002M8 7.00018C8 7.00018 7 8.12518 7 10.0002C7 11.8752 8 13.0002 8 13.0002M6 5.00018C6 5.00018 4 6.78618 4 10.0002C4 13.2142 6 15.0002 6 15.0002" stroke="black" stroke-width="1.5" stroke-linecap="round" stroke-linejoin="round"/>
</svg>
